<?xml version="1.0" encoding="utf-8"?>
<!-- Generator: Adobe Illustrator 22.1.0, SVG Export Plug-In . SVG Version: 6.00 Build 0)  -->
<svg version="1.1" id="Capa_1" xmlns="http://www.w3.org/2000/svg" xmlns:xlink="http://www.w3.org/1999/xlink" x="0px" y="0px"
	 viewBox="0 0 389.7 389.7" style="enable-background:new 0 0 389.7 389.7;" xml:space="preserve">
<style type="text/css">
	.st0{fill:#FFFFFF;}
</style>
<g>
	<g>
		<path class="st0" d="M109.2,0L94.5,14.7c-1.1-0.6-2.4-1-3.7-1h-80c-4.4,0-8,3.6-8,8v80c0,4.4,3.6,8,8,8h80c4.4,0,8-3.6,8-8V33
			l21.7-21.7L109.2,0z M82.8,93.7h-64v-64h60.7L50.8,58.3L40.5,48L29.2,59.3l16,16c3.1,3.1,8.2,3.1,11.3,0L82.8,49V93.7z"/>
	</g>
</g>
<g>
	<g>
		<path class="st0" d="M109.2,144l-14.7,14.7c-1.1-0.6-2.4-1-3.7-1h-80c-4.4,0-8,3.6-8,8v80c0,4.4,3.6,8,8,8h80c4.4,0,8-3.6,8-8V177
			l21.7-21.7L109.2,144z M82.8,237.7h-64v-64h60.7l-28.7,28.7L40.5,192l-11.3,11.3l16,16c3.1,3.1,8.2,3.1,11.3,0L82.8,193V237.7z"/>
	</g>
</g>
<g>
	<g>
		<path class="st0" d="M109.2,280l-14.7,14.7c-1.1-0.6-2.4-1-3.7-1h-80c-4.4,0-8,3.6-8,8v80c0,4.4,3.6,8,8,8h80c4.4,0,8-3.6,8-8V313
			l21.7-21.7L109.2,280z M82.8,373.7h-64v-64h60.7l-28.7,28.7L40.5,328l-11.3,11.3l16,16c3.1,3.1,8.2,3.1,11.3,0L82.8,329V373.7z"/>
	</g>
</g>
<g>
	<g>
		<rect x="154.8" y="77.7" class="st0" width="232" height="16"/>
	</g>
</g>
<g>
	<g>
		<rect x="154.8" y="29.7" class="st0" width="232" height="16"/>
	</g>
</g>
<g>
	<g>
		<rect x="154.8" y="221.7" class="st0" width="232" height="16"/>
	</g>
</g>
<g>
	<g>
		<rect x="154.8" y="173.7" class="st0" width="232" height="16"/>
	</g>
</g>
<g>
	<g>
		<rect x="154.8" y="357.7" class="st0" width="232" height="16"/>
	</g>
</g>
<g>
	<g>
		<rect x="154.8" y="309.7" class="st0" width="232" height="16"/>
	</g>
</g>
</svg>
